<?xml version="1.0" encoding="utf-8"?>
<!-- Generator: Adobe Illustrator 24.1.1, SVG Export Plug-In . SVG Version: 6.00 Build 0)  -->
<svg version="1.1" id="Layer_1" xmlns="http://www.w3.org/2000/svg" xmlns:xlink="http://www.w3.org/1999/xlink" x="0px" y="0px"
	 viewBox="0 0 300 300" style="enable-background:new 0 0 300 300;" xml:space="preserve">
<style type="text/css">
	.st0{opacity:0.1;fill:#0275D8;enable-background:new    ;}
</style>
<path class="st0" d="M0,100.6c42.2,5.9,69.8,18.6,86.3,27.9c67.4,38.3,74.7,96.6,141.3,131c29.2,15.1,56.7,19,72.7,20.3
	c-0.1,6.7-0.2,13.4-0.3,20.1H0V136.8V100.6z"/>
<path class="st0" d="M300,232.6c-32.4,24.7-57.7,28-73.5,27.2c-68.3-3.1-96.4-87.3-171.7-91.6c-23.5-1.4-43.1,5.4-54.7,10.4
	C0,194.3,0,210.2,0,226c0,24.7,0,49.3,0,74h300C300,277.5,300,255,300,232.6z"/>
</svg>
